<?xml version="1.0" encoding="iso-8859-1"?>
<!-- Generator: Adobe Illustrator 19.0.0, SVG Export Plug-In . SVG Version: 6.00 Build 0)  -->
<svg version="1.1" id="Capa_1" xmlns="http://www.w3.org/2000/svg" xmlns:xlink="http://www.w3.org/1999/xlink" x="0px" y="0px"
	 viewBox="0 0 512 512" style="enable-background:new 0 0 512 512;" xml:space="preserve">
<g>
	<g>
		<g>
			<path d="M137.6,372.8c1.511,2.014,3.882,3.2,6.4,3.2s4.889-1.186,6.4-3.2L172,344h84c17.673,0,32-14.327,32-32V32
				c0-17.673-14.327-32-32-32H32C14.327,0,0,14.327,0,32v280c0,17.673,14.327,32,32,32h84L137.6,372.8z M168,328
				c-2.518,0-4.889,1.186-6.4,3.2L144,354.688L126.4,331.2c-1.511-2.014-3.882-3.2-6.4-3.2H96v-32H80v32H56v-86.112l5.848-11.712
				l48.165-20.851L136,235.312V264h16v-28.688l25.985-25.985l48.167,20.849L232,241.888V328h-24v-32h-16v32H168z M184,102.845
				c-4-1.052-8-3.053-8-6.845c0-4.418-3.582-8-8-8h-48c-4.418,0-8,3.582-8,8c0,3.792-4,5.792-8,6.845V67.728
				c11.729-8.102,25.753-12.214,40-11.728c14.247-0.486,28.271,3.626,40,11.728V102.845z M104,119.248
				c9.621-0.918,18.116-6.662,22.552-15.248h34.896c4.436,8.586,12.931,14.33,22.552,15.248V128c0,22.144-10.48,48-40,48
				s-40-25.856-40-48V119.248z M144,192c7.046,0,13.633-1.211,19.643-3.469l3.053,9.46L144,220.688l-22.697-22.697l3.05-9.461
				C130.364,190.788,136.952,192,144,192z M16,312V32c0-8.837,7.163-16,16-16h224c8.837,0,16,7.163,16,16v280
				c0,8.837-7.163,16-16,16h-8v-88c0.014-1.238-0.26-2.462-0.8-3.576l-8-16c-0.852-1.685-2.267-3.018-4-3.768l-53.112-22.976
				l-4.277-13.256C191.648,169.238,200,150.683,200,128v-16V64c0-2.122-0.844-4.156-2.344-5.656
				C182.713,45.702,163.555,39.152,144,40c-19.555-0.848-38.712,5.702-53.656,18.344C88.844,59.844,88,61.878,88,64v48v16
				c0,22.68,8.35,41.232,22.182,52.419l-4.278,13.261L52.84,216.656c-1.733,0.75-3.148,2.083-4,3.768l-8,16
				c-0.554,1.111-0.841,2.335-0.84,3.576v88h-8C23.163,328,16,320.837,16,312z"/>
			<path d="M480,168h-60l-21.664-28.848c-1.511-2.014-3.882-3.2-6.4-3.2s-4.889,1.186-6.4,3.2L364,168h-60v16h64
				c2.518,0,4.889-1.186,6.4-3.2l17.6-23.512l17.6,23.512c1.511,2.014,3.882,3.2,6.4,3.2h64c8.837,0,16,7.163,16,16v280
				c0,8.837-7.163,16-16,16h-8v-88c0.014-1.238-0.26-2.462-0.8-3.576l-8-16c-0.852-1.685-2.267-3.018-4-3.768l-53.112-22.976
				l-4.276-13.256C415.648,337.238,424,318.683,424,296v-16v-48c0-2.122-0.844-4.156-2.344-5.656
				C406.713,213.702,387.555,207.152,368,208c-19.555-0.848-38.712,5.702-53.656,18.344c-1.5,1.5-2.344,3.534-2.344,5.656v48v16
				c0,22.663,8.337,41.205,22.15,52.394l-4.286,13.286L276.8,384.656c-1.733,0.75-3.148,2.083-4,3.768l-8,16
				c-0.54,1.114-0.814,2.338-0.8,3.576v88h-8c-8.837,0-16-7.163-16-16V360h-16v120c0,17.673,14.327,32,32,32h224
				c17.673,0,32-14.327,32-32V200C512,182.327,497.673,168,480,168z M368,224c14.247-0.486,28.271,3.626,40,11.728v35.117
				c-4-1.052-8-3.053-8-6.845c0-4.418-3.582-8-8-8h-48c-4.418,0-8,3.582-8,8c0,3.792-4,5.792-8,6.845v-35.117
				C339.729,227.626,353.753,223.514,368,224z M328,296v-8.752c9.621-0.918,18.116-6.662,22.552-15.248h34.896
				c4.436,8.586,12.931,14.33,22.552,15.248V296c0,22.144-10.48,48-40,48C338.48,344,328,318.144,328,296z M368,360
				c7.046,0,13.633-1.211,19.643-3.469l3.053,9.46L368,388.688l-22.702-22.702l3.034-9.463C354.349,358.786,360.944,360,368,360z
				 M280,409.888l5.84-11.712l48.173-20.851L360,403.312V432h16v-28.688l25.985-25.985l48.167,20.849L456,409.888V496h-24v-32h-16
				v32h-96v-32h-16v32h-24V409.888z"/>
			<path d="M392,120c17.673,0,32-14.327,32-32s-14.327-32-32-32c-17.673,0-32,14.327-32,32S374.327,120,392,120z M392,72
				c8.837,0,16,7.163,16,16s-7.163,16-16,16s-16-7.163-16-16S383.163,72,392,72z"/>
			<path d="M144,392c-17.673,0-32,14.327-32,32c0,17.673,14.327,32,32,32s32-14.327,32-32C176,406.327,161.673,392,144,392z
				 M144,440c-8.837,0-16-7.163-16-16s7.163-16,16-16s16,7.163,16,16S152.837,440,144,440z"/>
		</g>
	</g>
</g>
<g>
</g>
<g>
</g>
<g>
</g>
<g>
</g>
<g>
</g>
<g>
</g>
<g>
</g>
<g>
</g>
<g>
</g>
<g>
</g>
<g>
</g>
<g>
</g>
<g>
</g>
<g>
</g>
<g>
</g>
</svg>
