<?xml version="1.0" encoding="iso-8859-1"?>
<!-- Generator: Adobe Illustrator 19.0.0, SVG Export Plug-In . SVG Version: 6.00 Build 0)  -->
<svg version="1.1" id="Capa_1" xmlns="http://www.w3.org/2000/svg" xmlns:xlink="http://www.w3.org/1999/xlink" x="0px" y="0px"
	 viewBox="0 0 512 512" style="enable-background:new 0 0 512 512;" xml:space="preserve">
<g>
	<g>
		<path d="M211.914,448.877h-32.063c-4.151,0-7.515,3.365-7.515,7.515v24.047c0,4.15,3.364,7.515,7.515,7.515h32.063
			c4.151,0,7.515-3.365,7.515-7.515v-24.047C219.429,452.241,216.065,448.877,211.914,448.877z M204.399,472.924h-17.033v-9.018
			h17.033V472.924z"/>
	</g>
</g>
<g>
	<g>
		<path d="M211.914,32.063h-32.063c-4.151,0-7.515,3.365-7.515,7.515c0,4.15,3.364,7.515,7.515,7.515h32.063
			c4.151,0,7.515-3.365,7.515-7.515C219.429,35.427,216.065,32.063,211.914,32.063z"/>
	</g>
</g>
<g>
	<g>
		<path d="M187.867,160.313h-48.094c-4.151,0-7.515,3.365-7.515,7.515c0,4.15,3.364,7.515,7.515,7.515h48.094
			c4.151,0,7.515-3.365,7.515-7.515C195.382,163.678,192.018,160.313,187.867,160.313z"/>
	</g>
</g>
<g>
	<g>
		<path d="M195.883,240.47h-56.11c-4.151,0-7.515,3.365-7.515,7.515c0,4.15,3.364,7.515,7.515,7.515h56.11
			c4.151,0,7.515-3.365,7.515-7.515C203.397,243.834,200.034,240.47,195.883,240.47z"/>
	</g>
</g>
<g>
	<g>
		<path d="M347.679,136.479V39.577C347.679,17.755,329.924,0,308.102,0H83.663C61.841,0,44.086,17.755,44.086,39.577v304.595
			c0,4.15,3.364,7.515,7.515,7.515s7.515-3.365,7.515-7.515V79.155H332.65v57.324c-11.491,0.628-22.58,2.681-33.065,5.982v-30.742
			c0-4.15-3.364-7.515-7.515-7.515H99.695c-4.151,0-7.515,3.365-7.515,7.515v164.321c0,1.977,0.807,3.915,2.2,5.313l60.117,60.117
			c1.392,1.398,3.343,2.201,5.314,2.201h85.824l-16.738,46.027c-2.307,6.349,4.697,12.418,10.662,9.165l56.104-30.602
			c11.891,4.146,24.29,6.575,36.986,7.263v49.305H59.115v-45.088c0-4.15-3.364-7.515-7.515-7.515s-7.515,3.365-7.515,7.515v92.681
			c0,21.823,17.755,39.577,39.577,39.577h224.438c21.823,0,39.577-17.755,39.577-39.577v-96.901
			c66.957-3.659,120.235-55.865,120.235-119.521S414.636,140.138,347.679,136.479z M332.65,472.423
			c0,13.535-11.012,24.548-24.548,24.548H83.663c-13.536,0-24.548-11.013-24.548-24.548v-32.564H332.65V472.423z M59.115,64.125
			V39.577c0-13.535,11.011-24.548,24.548-24.548h224.438c13.536,0,24.548,11.013,24.548,24.548v24.548H59.115z M152.298,318.015
			l-34.461-34.461h34.461V318.015z M167.327,328.642v-52.603c0-4.15-3.364-7.515-7.515-7.515h-52.603V119.233h177.346v28.986
			c-7.74,3.522-15.042,7.76-21.818,12.614c-0.847-0.331-1.765-0.519-2.73-0.519H219.93c-4.151,0-7.515,3.365-7.515,7.515
			c0,4.15,3.364,7.515,7.515,7.515h25.904c-7.338,7.534-13.662,15.948-18.776,25.049h-87.284c-4.151,0-7.515,3.365-7.515,7.515
			s3.364,7.515,7.515,7.515h80.201c-4.888,12.678-7.559,26.341-7.559,40.579c0,26.665,9.189,51.894,26.173,72.642H167.327z
			 M340.164,360.704c-14.68,0-28.968-2.588-42.465-7.693c-2.049-0.775-4.334-0.617-6.257,0.432l-41.624,22.704l13.525-37.195
			c1.042-2.866,0.248-6.077-2.008-8.128c-21.855-19.87-33.891-46.444-33.891-74.825c0-57.735,50.567-104.705,112.72-104.705
			s112.72,46.97,112.72,104.705S402.318,360.704,340.164,360.704z"/>
	</g>
</g>
<g>
	<g>
		<path d="M372.227,239.468c4.151,0,7.515-3.365,7.515-7.515v-8.016c0-17.403-14.159-31.562-31.562-31.562h-0.501v-16.532
			c0-4.15-3.364-7.515-7.515-7.515s-7.515,3.365-7.515,7.515v16.707c-17.973,1.767-32.063,16.965-32.063,35.395
			c0,19.613,15.956,35.569,35.569,35.569h8.016c11.326,0,20.54,9.214,20.54,20.54s-9.214,20.54-20.54,20.54h-12.023
			c-9.116,0-16.532-7.417-16.532-16.532c0-4.15-3.364-7.515-7.515-7.515s-7.515,3.365-7.515,7.515
			c0,17.403,14.159,31.562,31.562,31.562h0.501v16.532c0,4.15,3.364,7.515,7.515,7.515s7.515-3.365,7.515-7.515V319.45
			c17.973-1.767,32.063-16.965,32.063-35.395c0-19.613-15.956-35.57-35.57-35.57h-8.016c-11.326,0-20.54-9.214-20.54-20.54
			s9.214-20.54,20.54-20.54h12.023c9.116,0,16.532,7.417,16.532,16.532v8.016C364.712,236.103,368.076,239.468,372.227,239.468z"/>
	</g>
</g>
<g>
</g>
<g>
</g>
<g>
</g>
<g>
</g>
<g>
</g>
<g>
</g>
<g>
</g>
<g>
</g>
<g>
</g>
<g>
</g>
<g>
</g>
<g>
</g>
<g>
</g>
<g>
</g>
<g>
</g>
</svg>
