<svg viewBox="-29 0 512 512" xmlns="http://www.w3.org/2000/svg"><path d="m436.410156 35.398438h-202.164062v-27.898438c0-4.144531-3.355469-7.5-7.5-7.5-4.144532 0-7.5 3.355469-7.5 7.5v27.898438h-202.167969c-9.417969 0-17.078125 7.664062-17.078125 17.082031v23.335937c0 9.417969 7.660156 17.082032 17.078125 17.082032h2.066406v51.101562c0 4.144531 3.359375 7.5 7.5 7.5 4.144531 0 7.5-3.355469 7.5-7.5v-51.101562h385.199219v167.234374c0 4.144532 3.359375 7.5 7.5 7.5 4.144531 0 7.5-3.355468 7.5-7.5v-167.234374h2.066406c9.417969 0 17.082032-7.664063 17.082032-17.082032v-23.335937c0-9.417969-7.664063-17.082031-17.082032-17.082031zm2.082032 40.417968c0 1.148438-.933594 2.082032-2.082032 2.082032h-419.332031c-1.144531 0-2.078125-.933594-2.078125-2.082032v-23.335937c0-1.144531.933594-2.082031 2.078125-2.082031h419.332031c1.148438 0 2.082032.9375 2.082032 2.082031zm0 0"/><path d="m426.847656 282.632812c-4.144531 0-7.5 3.359376-7.5 7.5v48.257813c0 4.417969-3.59375 8.011719-8.011718 8.011719h-369.179688c-4.417969 0-8.011719-3.59375-8.011719-8.011719v-164.390625c0-4.144531-3.355469-7.5-7.5-7.5-4.140625 0-7.5 3.355469-7.5 7.5v164.390625c0 12.6875 10.324219 23.011719 23.011719 23.011719h177.089844v25.492187h-6.246094c-10.792969 0-19.574219 8.78125-19.574219 19.574219 0 4.054688 1.238281 7.824219 3.359375 10.953125l-62.539062 82.550781c-2.5 3.300782-1.851563 8.003906 1.449218 10.507813 1.355469 1.023437 2.945313 1.519531 4.523438 1.519531 2.269531 0 4.507812-1.023438 5.984375-2.972656l63.132813-83.332032c1.1875.226563 2.410156.34375 3.660156.34375h6.25v78.460938c0 4.144531 3.355468 7.5 7.5 7.5 4.140625 0 7.5-3.355469 7.5-7.5v-78.460938h6.246094c1.25 0 2.476562-.117187 3.660156-.34375l63.132812 83.332032c1.476563 1.949218 3.71875 2.972656 5.984375 2.972656 1.578125 0 3.167969-.496094 4.523438-1.519531 3.300781-2.503907 3.949219-7.207031 1.449219-10.507813l-62.539063-82.550781c2.121094-3.128906 3.359375-6.898437 3.359375-10.953125 0-10.792969-8.777344-19.574219-19.570312-19.574219h-6.246094v-25.492187h177.089844c12.6875 0 23.011718-10.324219 23.011718-23.011719v-48.257813c0-4.140624-3.359375-7.5-7.5-7.5zm-181.78125 123.835938c0 2.519531-2.050781 4.570312-4.574218 4.570312h-27.492188c-.867188 0-1.679688-.242187-2.367188-.660156-.015624-.011718-.03125-.019531-.046874-.027344-1.296876-.808593-2.160157-2.25-2.160157-3.882812 0-2.523438 2.050781-4.574219 4.574219-4.574219h27.492188c2.523437 0 4.574218 2.050781 4.574218 4.574219zm0 0"/></svg>