<?xml version="1.0" encoding="iso-8859-1"?>
<!-- Generator: Adobe Illustrator 19.0.0, SVG Export Plug-In . SVG Version: 6.00 Build 0)  -->
<svg version="1.1" id="Capa_1" xmlns="http://www.w3.org/2000/svg" xmlns:xlink="http://www.w3.org/1999/xlink" x="0px" y="0px"
	 viewBox="0 0 512.002 512.002" style="enable-background:new 0 0 512.002 512.002;" xml:space="preserve">
<g>
	<path style="fill:#FFCF33;" d="M323.034,49.999H392h30V32.222C422,20.005,412,10,399.778,10H32.223C20,10,10,19.999,10,32.222V70
		h137.373l20-20.001H323.034z"/>
	<path style="fill:#D7D7E8;" d="M392,49.999h-68.966H167.373l-20,20.001H10v217.774c0,12.223,10,22.222,22.222,22.222h57.781
		v-147.99v-37.778c0-12.222,10-22.222,22.222-22.222h309.774V49.999H392z"/>
	<path style="fill:#FFCF33;" d="M421.999,102.005H112.225c-12.222,0-22.222,10-22.222,22.222v37.778h137.373l20-20.001h254.626
		v-17.777c0-12.217-10-22.222-22.222-22.222H421.999z"/>
	<path style="fill:#F0F0FA;" d="M502.002,142.005H247.376l-20,20.001H90.003v147.99v69.784c0,12.223,10,22.222,22.222,22.222h30
		h68.965h44.462h6.35c0-55.228,44.771-100,100-100s100,44.772,100,100h17.778c12.219,0,22.222-10.003,22.222-22.222V142.005z"/>
	<circle style="fill:#00D7CE;" cx="362" cy="402" r="100"/>
</g>
<path d="M182.46,392.002h-0.269c-5.523,0-10,4.478-10,10s4.477,10,10,10h0.269c5.523,0,10-4.478,10-10
	S187.983,392.002,182.46,392.002z"/>
<path d="M479.78,92.006H432V32.222C431.999,14.454,417.545,0,399.777,0H32.222C14.455,0,0,14.454,0,32.222v255.552
	c0,17.768,14.455,32.223,32.222,32.223h47.781v59.783c0,17.768,14.455,32.223,32.222,32.223h30c5.523,0,10-4.478,10-10
	s-4.477-10-10-10h-30c-6.739,0-12.222-5.483-12.222-12.223V172.006h127.373c2.652,0,5.196-1.054,7.071-2.929l17.072-17.072h240.483
	v227.774c0,6.739-5.483,12.223-12.222,12.223h-8.237c-5.069-55.985-52.257-100.001-109.541-100.001S257.53,336.017,252.461,392.002
	H211.19c-5.523,0-10,4.478-10,10s4.477,10,10,10h41.271c5.07,55.984,52.258,100,109.541,100s104.471-44.016,109.541-100h8.237
	c17.768,0,32.222-14.455,32.222-32.223V124.228C512.002,106.46,497.547,92.006,479.78,92.006z M362.002,492.002
	c-49.624,0-89.996-40.37-90-89.992c0-0.003,0-0.005,0-0.008s0-0.005,0-0.008c0.004-49.623,40.376-89.993,90-89.993
	s89.996,40.37,90,89.993c0,0.003,0,0.005,0,0.008s0,0.005,0,0.008C451.997,451.632,411.625,492.002,362.002,492.002z
	 M32.222,299.996c-6.739,0-12.222-5.483-12.222-12.223V80h127.373c2.652,0,5.196-1.054,7.071-2.929l17.072-17.072h151.518
	c5.523,0,10-4.478,10-10s-4.477-10-10-10H167.373c-0.059,0-0.115,0.008-0.174,0.009c-0.27,0.005-0.539,0.014-0.808,0.041
	c-0.167,0.016-0.33,0.047-0.494,0.071c-0.158,0.023-0.317,0.041-0.474,0.072c-0.179,0.035-0.352,0.084-0.527,0.129
	c-0.141,0.036-0.283,0.066-0.422,0.109c-0.169,0.051-0.331,0.114-0.496,0.173c-0.143,0.052-0.288,0.099-0.429,0.157
	c-0.151,0.063-0.296,0.136-0.443,0.206c-0.149,0.07-0.299,0.136-0.445,0.215c-0.137,0.073-0.268,0.157-0.401,0.237
	c-0.147,0.088-0.297,0.171-0.44,0.267c-0.141,0.094-0.273,0.199-0.408,0.3c-0.126,0.094-0.255,0.182-0.378,0.283
	c-0.219,0.18-0.427,0.372-0.629,0.569c-0.033,0.032-0.069,0.059-0.101,0.092L143.231,60H20V32.222C20,25.482,25.483,20,32.222,20
	h367.555c6.739,0,12.222,5.482,12.222,12.222v7.777h-20c-5.523,0-10,4.478-10,10s4.477,10,10,10h20v32.007H112.225
	c-17.768,0-32.222,14.454-32.222,32.222v175.769H32.222V299.996z M247.376,132.005c-0.059,0-0.115,0.008-0.174,0.009
	c-0.27,0.005-0.539,0.014-0.808,0.041c-0.167,0.016-0.33,0.047-0.494,0.071c-0.158,0.023-0.317,0.041-0.474,0.072
	c-0.179,0.035-0.352,0.084-0.527,0.129c-0.141,0.036-0.283,0.066-0.422,0.109c-0.169,0.051-0.331,0.114-0.496,0.173
	c-0.143,0.052-0.288,0.099-0.429,0.157c-0.151,0.063-0.296,0.136-0.443,0.206c-0.149,0.07-0.299,0.136-0.445,0.215
	c-0.137,0.073-0.268,0.157-0.401,0.237c-0.147,0.088-0.297,0.171-0.44,0.267c-0.141,0.094-0.273,0.199-0.408,0.3
	c-0.126,0.094-0.255,0.182-0.378,0.283c-0.219,0.18-0.427,0.372-0.629,0.569c-0.033,0.032-0.069,0.059-0.101,0.092l-17.071,17.072
	h-123.23v-27.778c0-6.739,5.483-12.222,12.222-12.222H479.78c6.739,0,12.222,5.482,12.222,12.222v7.777L247.376,132.005
	L247.376,132.005z"/>
<path d="M124.772,122.006h-0.269c-5.523,0-10,4.478-10,10s4.477,10,10,10h0.269c5.523,0,10-4.478,10-10
	S130.295,122.006,124.772,122.006z"/>
<path d="M164.773,122.006h-0.27c-5.523,0-10,4.478-10,10s4.477,10,10,10h0.27c5.523,0,10-4.478,10-10
	S170.296,122.006,164.773,122.006z"/>
<path d="M204.773,122.006h-0.269c-5.523,0-10,4.478-10,10s4.477,10,10,10h0.269c5.523,0,10-4.478,10-10
	S210.296,122.006,204.773,122.006z"/>
<path d="M44.769,30H44.5c-5.523,0-10,4.478-10,10s4.477,10,10,10h0.269c5.523,0,10-4.478,10-10S50.292,30,44.769,30z"/>
<path d="M84.77,30h-0.269c-5.523,0-10,4.478-10,10s4.477,10,10,10h0.269c5.523,0,10-4.478,10-10S90.293,30,84.77,30z"/>
<path d="M124.77,30h-0.27c-5.523,0-10,4.478-10,10s4.477,10,10,10h0.27c5.523,0,10-4.478,10-10S130.293,30,124.77,30z"/>
<path d="M351.764,59.999h0.27c5.523,0,10-4.478,10-10s-4.477-10-10-10h-0.27c-5.523,0-10,4.478-10,10S346.241,59.999,351.764,59.999
	z"/>
<path d="M130.004,232.321h61.67c5.523,0,10-4.478,10-10s-4.477-10-10-10h-61.67c-5.523,0-10,4.478-10,10
	S124.481,232.321,130.004,232.321z"/>
<path d="M130.004,272.321h123.34c5.523,0,10-4.478,10-10s-4.477-10-10-10h-123.34c-5.523,0-10,4.478-10,10
	S124.481,272.321,130.004,272.321z"/>
<path d="M191.674,292.321h-61.67c-5.523,0-10,4.478-10,10s4.477,10,10,10h61.67c5.523,0,10-4.478,10-10
	S197.197,292.321,191.674,292.321z"/>
<path d="M462.002,232.321c5.523,0,10-4.478,10-10s-4.477-10-10-10H338.661c-5.523,0-10,4.478-10,10s4.477,10,10,10H462.002z"/>
<path d="M404.961,359.931l-62.929,62.929l-22.99-22.99c-3.906-3.904-10.237-3.904-14.142,0c-3.906,3.905-3.906,10.237,0,14.143
	l30.061,30.062c1.875,1.875,4.419,2.929,7.071,2.929s5.196-1.054,7.071-2.929l70-70c3.905-3.905,3.905-10.237,0-14.143
	C415.198,356.026,408.866,356.026,404.961,359.931z"/>
<g>
</g>
<g>
</g>
<g>
</g>
<g>
</g>
<g>
</g>
<g>
</g>
<g>
</g>
<g>
</g>
<g>
</g>
<g>
</g>
<g>
</g>
<g>
</g>
<g>
</g>
<g>
</g>
<g>
</g>
</svg>
