<?xml version="1.0" encoding="iso-8859-1"?>
<!-- Generator: Adobe Illustrator 19.0.0, SVG Export Plug-In . SVG Version: 6.00 Build 0)  -->
<svg version="1.1" id="Layer_1" xmlns="http://www.w3.org/2000/svg" xmlns:xlink="http://www.w3.org/1999/xlink" x="0px" y="0px"
	 viewBox="0 0 512 512" style="enable-background:new 0 0 512 512;" xml:space="preserve">
<g>
	<g>
		<circle cx="201.877" cy="200.795" r="10.825"/>
	</g>
</g>
<g>
	<g>
		<circle cx="310.123" cy="200.795" r="10.825"/>
	</g>
</g>
<g>
	<g>
		<path d="M212.702,157.497h-21.649c-5.978,0-10.825,4.846-10.825,10.825s4.846,10.825,10.825,10.825h21.649
			c5.978,0,10.825-4.846,10.825-10.825S218.68,157.497,212.702,157.497z"/>
	</g>
</g>
<g>
	<g>
		<path d="M320.947,157.497h-21.649c-5.978,0-10.825,4.846-10.825,10.825s4.846,10.825,10.825,10.825h21.649
			c5.978,0,10.825-4.846,10.825-10.825S326.926,157.497,320.947,157.497z"/>
	</g>
</g>
<g>
	<g>
		<path d="M297.57,258.715c-3.88-2.244-8.846-0.919-11.093,2.963c-6.278,10.853-17.957,17.595-30.478,17.595
			s-24.199-6.743-30.478-17.595c-2.245-3.882-7.212-5.207-11.093-2.963c-3.881,2.245-5.208,7.211-2.963,11.093
			c9.172,15.854,26.235,25.702,44.533,25.702s35.362-9.849,44.533-25.703C302.777,265.926,301.451,260.96,297.57,258.715z"/>
	</g>
</g>
<g>
	<g>
		<path d="M256.001,211.619c-5.978,0-10.825,4.846-10.825,10.825v6.87c-0.001,2.184,1.769,3.954,3.953,3.954h13.742
			c2.183,0,3.954-1.77,3.954-3.954v-6.87C266.826,216.466,261.979,211.619,256.001,211.619z"/>
	</g>
</g>
<g>
	<g>
		<path d="M413.497,157.497C413.497,70.653,342.844,0,256,0S98.503,70.653,98.503,157.497v184.017
			c0,29.73,8.358,58.617,24.151,83.694c-3.042,8.964-4.666,18.482-4.666,28.234v50.44c0,4.484,3.635,8.118,8.118,8.118h259.789
			c4.484,0,8.118-3.635,8.118-8.118v-50.44c0-9.747-1.625-19.263-4.664-28.225c15.793-25.075,24.148-53.986,24.148-83.703V157.497z
			 M114.74,341.514v-124.36c6.224,7.874,15.732,13.028,26.442,13.379c6.822,41.552,35.725,75.763,74.226,90.14v26.888
			l-52.176,28.987c-13.424,7.457-24.391,18.149-32.171,30.787C120.365,387.113,114.74,364.598,114.74,341.514z M123.4,195.383
			c0-9.527,7.068-17.433,16.237-18.75v37.5C130.468,212.816,123.4,204.909,123.4,195.383z M155.873,211.619v-43.298
			c0-8.398,1.039-16.556,2.995-24.355H256c2.715,0,5.25-1.356,6.755-3.615l14.895-22.341l14.895,22.341
			c1.506,2.258,4.04,3.615,6.755,3.615h56.829v67.653c0,55.211-44.916,100.127-100.127,100.127S155.873,266.83,155.873,211.619z
			 M150.591,495.763h-16.367v-37.886h22.093C153.647,465.85,151.173,477.904,150.591,495.763z M166.843,495.764v-0.001
			c1.039-29.201,7.52-39.121,8.439-40.381c2.57-2.258,3.192-5.676,1.908-8.904c-1.19-2.993-4.229-4.838-7.451-4.838h-34.535
			c1.627-9.746,5.247-18.974,10.531-27.147c5.746,2.677,26.211,11.587,56.334,17.813c5.052,1.045,9.797-2.782,9.797-7.94v-0.016
			c0-3.842-2.699-7.163-6.46-7.942c-23.421-4.855-40.774-11.469-48.9-14.913c4.342-4.135,9.231-7.766,14.609-10.753l44.765-24.869
			c1.18,3.329,4.461,5.663,8.254,5.386c4.285-0.313,7.51-4.07,7.51-8.367v-37.481c7.857,1.68,16.004,2.572,24.355,2.572
			s16.498-0.892,24.355-2.572v37.481c0,4.297,3.225,8.055,7.51,8.367c3.793,0.277,7.073-2.058,8.254-5.386l44.765,24.869
			c6.684,3.714,12.618,8.416,17.675,13.857c-42.43,16.521-82.748,19.255-114.704,17.088c-4.696-0.318-8.679,3.386-8.679,8.092
			c0,4.274,3.309,7.809,7.573,8.101c6.405,0.44,13.118,0.695,20.116,0.695c31.135,0,67.635-4.957,105.603-20.438
			c4.093,7.234,6.939,15.179,8.328,23.504h-34.535c-3.22,0-6.26,1.844-7.451,4.837c-1.284,3.228-0.66,6.647,1.908,8.904
			c0.919,1.26,7.399,11.18,8.439,40.381H166.843z M377.776,495.763h-16.367c-0.582-17.859-3.056-29.914-5.726-37.886h22.093V495.763
			z M397.26,341.514c0,23.074-5.624,45.6-16.32,65.824c-7.78-12.638-18.747-23.331-32.172-30.789l-52.176-28.987v-26.888
			c38.501-14.377,67.405-48.588,74.226-90.14c10.709-0.35,20.218-5.505,26.442-13.379V341.514z M372.364,214.133v-37.5
			c9.168,1.317,16.237,9.224,16.237,18.75S381.532,212.816,372.364,214.133z M397.26,173.611
			c-5.923-7.493-14.82-12.523-24.896-13.294v-24.47c0-4.484-3.635-8.118-8.118-8.118h-60.602l-19.24-28.858
			c-1.506-2.258-4.04-3.615-6.755-3.615s-5.25,1.356-6.755,3.615l-19.24,28.858h-36.55c3.657-8.723,13.419-14.213,20.603-15.43
			c4.42-0.75,7.396-4.941,6.646-9.362c-0.75-4.42-4.934-7.393-9.362-6.646c-15.53,2.635-31.208,14.691-34.808,31.439h-33.712
			c15.604-35.041,50.759-59.535,91.527-59.535c4.484,0,8.118-3.635,8.118-8.118s-3.635-8.118-8.118-8.118
			c-61.465,0-111.945,47.905-116.082,108.338c-10.192,0.698-19.201,5.752-25.178,13.315v-16.114
			C114.74,79.606,178.109,16.237,256,16.237s141.26,63.369,141.26,141.26V173.611z"/>
	</g>
</g>
<g>
</g>
<g>
</g>
<g>
</g>
<g>
</g>
<g>
</g>
<g>
</g>
<g>
</g>
<g>
</g>
<g>
</g>
<g>
</g>
<g>
</g>
<g>
</g>
<g>
</g>
<g>
</g>
<g>
</g>
</svg>
